       <svg class='text-primary' width="41" height="40" viewBox="0 0 41 40" fill="none" xmlns="http://www.w3.org/2000/svg">
          <path fillRule="evenodd" clipRule="evenodd" d="M20.3798 0.649414C9.49788 0.649414 0.700912 9.51835 0.700912 20.4904C0.700912 29.261 6.33743 36.6851 14.1568 39.3128C15.1344 39.5103 15.4925 38.8858 15.4925 38.3605C15.4925 37.9006 15.4603 36.3239 15.4603 34.6811C9.98608 35.8639 8.84613 32.316 8.84613 32.316C7.96639 30.0165 6.6629 29.4255 6.6629 29.4255C4.8712 28.21 6.79341 28.21 6.79341 28.21C8.78087 28.3415 9.82375 30.2467 9.82375 30.2467C11.5828 33.2686 14.4174 32.4147 15.5577 31.889C15.7205 30.6079 16.2421 29.721 16.796 29.2284C12.4299 28.7684 7.83629 27.0603 7.83629 19.4391C7.83629 17.271 8.61774 15.4972 9.85597 14.1177C9.66061 13.6251 8.97624 11.588 10.0517 8.86165C10.0517 8.86165 11.7133 8.33596 15.4599 10.8983C17.0639 10.464 18.7181 10.243 20.3798 10.2412C22.0414 10.2412 23.7352 10.4714 25.2993 10.8983C29.0462 8.33596 30.7078 8.86165 30.7078 8.86165C31.7833 11.588 31.0985 13.6251 30.9032 14.1177C32.174 15.4972 32.9233 17.271 32.9233 19.4391C32.9233 27.0603 28.3296 28.7353 23.931 29.2284C24.648 29.8524 25.2667 31.0348 25.2667 32.9074C25.2667 35.568 25.2344 37.7034 25.2344 38.3601C25.2344 38.8858 25.5929 39.5103 26.5702 39.3132C34.3895 36.6847 40.026 29.261 40.026 20.4904C40.0582 9.51835 31.2291 0.649414 20.3798 0.649414Z" fill="currentColor" />
        </svg>